<svg width="114" height="31" viewBox="0 0 114 31" fill="none" xmlns="http://www.w3.org/2000/svg">
<path d="M8.576 9.74C9.88267 9.74 11.0493 10.076 12.076 10.748C13.1213 11.4013 13.9427 12.3067 14.54 13.464C15.156 14.6213 15.464 15.9653 15.464 17.496C15.464 19.0267 15.156 20.38 14.54 21.556C13.9427 22.7133 13.1307 23.628 12.104 24.3C11.096 24.9533 9.95733 25.28 8.688 25.28C7.94133 25.28 7.24133 25.1587 6.588 24.916C5.93467 24.6733 5.356 24.3653 4.852 23.992C4.36667 23.6187 3.984 23.2453 3.704 22.872C3.44267 22.48 3.312 22.1533 3.312 21.892L4.18 21.528V28.892C4.18 29.3773 4.02133 29.7787 3.704 30.096C3.38667 30.432 2.98533 30.6 2.5 30.6C2.01467 30.6 1.61333 30.4413 1.296 30.124C0.978667 29.8067 0.82 29.396 0.82 28.892V11.728C0.82 11.2427 0.978667 10.8413 1.296 10.524C1.61333 10.188 2.01467 10.02 2.5 10.02C2.98533 10.02 3.38667 10.188 3.704 10.524C4.02133 10.8413 4.18 11.2427 4.18 11.728V13.1L3.704 12.848C3.704 12.6053 3.83467 12.316 4.096 11.98C4.35733 11.6253 4.712 11.28 5.16 10.944C5.608 10.5893 6.12133 10.3 6.7 10.076C7.29733 9.852 7.92267 9.74 8.576 9.74ZM8.156 12.82C7.33467 12.82 6.616 13.0253 6 13.436C5.384 13.8467 4.89867 14.4067 4.544 15.116C4.208 15.8067 4.04 16.6 4.04 17.496C4.04 18.3733 4.208 19.176 4.544 19.904C4.89867 20.6133 5.384 21.1733 6 21.584C6.616 21.9947 7.33467 22.2 8.156 22.2C8.97733 22.2 9.68667 21.9947 10.284 21.584C10.9 21.1733 11.376 20.6133 11.712 19.904C12.0667 19.176 12.244 18.3733 12.244 17.496C12.244 16.6 12.0667 15.8067 11.712 15.116C11.376 14.4067 10.9 13.8467 10.284 13.436C9.68667 13.0253 8.97733 12.82 8.156 12.82ZM20.082 25C19.5967 25 19.1954 24.8413 18.878 24.524C18.5607 24.188 18.402 23.7773 18.402 23.292V11.728C18.402 11.2427 18.5607 10.8413 18.878 10.524C19.1954 10.188 19.5967 10.02 20.082 10.02C20.5674 10.02 20.9687 10.188 21.286 10.524C21.6034 10.8413 21.762 11.2427 21.762 11.728V14.36L21.566 12.484C21.7714 12.036 22.0327 11.644 22.35 11.308C22.686 10.9533 23.0594 10.664 23.47 10.44C23.8807 10.1973 24.3194 10.02 24.786 9.908C25.2527 9.796 25.7194 9.74 26.186 9.74C26.746 9.74 27.2127 9.89867 27.586 10.216C27.978 10.5333 28.174 10.9067 28.174 11.336C28.174 11.952 28.0154 12.4 27.698 12.68C27.3807 12.9413 27.0354 13.072 26.662 13.072C26.3074 13.072 25.9807 13.0067 25.682 12.876C25.402 12.7453 25.0754 12.68 24.702 12.68C24.366 12.68 24.0207 12.764 23.666 12.932C23.33 13.0813 23.0127 13.324 22.714 13.66C22.434 13.996 22.2007 14.416 22.014 14.92C21.846 15.4053 21.762 15.984 21.762 16.656V23.292C21.762 23.7773 21.6034 24.188 21.286 24.524C20.9687 24.8413 20.5674 25 20.082 25ZM48.8547 15.2C48.8547 16.6 48.6213 17.9067 48.1547 19.12C47.688 20.3333 47.0253 21.4067 46.1667 22.34C45.3267 23.2547 44.3187 23.9733 43.1427 24.496C41.9853 25.0187 40.716 25.28 39.3347 25.28C37.9533 25.28 36.684 25.0187 35.5267 24.496C34.3693 23.9733 33.3613 23.2547 32.5027 22.34C31.6627 21.4067 31.0093 20.3333 30.5427 19.12C30.076 17.9067 29.8427 16.6 29.8427 15.2C29.8427 13.8 30.076 12.4933 30.5427 11.28C31.0093 10.0667 31.6627 9.00267 32.5027 8.088C33.3613 7.15467 34.3693 6.42667 35.5267 5.904C36.684 5.38133 37.9533 5.12 39.3347 5.12C40.716 5.12 41.9853 5.38133 43.1427 5.904C44.3187 6.42667 45.3267 7.15467 46.1667 8.088C47.0253 9.00267 47.688 10.0667 48.1547 11.28C48.6213 12.4933 48.8547 13.8 48.8547 15.2ZM45.2147 15.2C45.2147 13.9493 44.9627 12.82 44.4587 11.812C43.9547 10.7853 43.264 9.97333 42.3867 9.376C41.5093 8.77867 40.492 8.48 39.3347 8.48C38.1773 8.48 37.16 8.77867 36.2827 9.376C35.4053 9.97333 34.7147 10.776 34.2107 11.784C33.7253 12.792 33.4827 13.9307 33.4827 15.2C33.4827 16.4507 33.7253 17.5893 34.2107 18.616C34.7147 19.624 35.4053 20.4267 36.2827 21.024C37.16 21.6213 38.1773 21.92 39.3347 21.92C40.492 21.92 41.5093 21.6213 42.3867 21.024C43.264 20.4267 43.9547 19.624 44.4587 18.616C44.9627 17.5893 45.2147 16.4507 45.2147 15.2ZM42.1067 3.72C41.528 3.72 41.0987 3.61733 40.8187 3.412C40.5573 3.20667 40.4267 2.84266 40.4267 2.32V1.816C40.4267 1.27467 40.5667 0.910665 40.8467 0.723999C41.1267 0.518666 41.5467 0.415999 42.1067 0.415999C42.7413 0.415999 43.1893 0.518666 43.4507 0.723999C43.7307 0.929332 43.8707 1.29333 43.8707 1.816V2.32C43.8707 2.86133 43.7307 3.23467 43.4507 3.44C43.1707 3.62667 42.7227 3.72 42.1067 3.72ZM36.5347 3.72C35.956 3.72 35.5267 3.61733 35.2467 3.412C34.9853 3.20667 34.8547 2.84266 34.8547 2.32V1.816C34.8547 1.27467 34.9947 0.910665 35.2747 0.723999C35.5733 0.518666 36.0027 0.415999 36.5627 0.415999C37.1787 0.415999 37.6173 0.518666 37.8787 0.723999C38.1587 0.929332 38.2987 1.29333 38.2987 1.816V2.32C38.2987 2.86133 38.1587 3.23467 37.8787 3.44C37.5987 3.62667 37.1507 3.72 36.5347 3.72Z" fill="#12B7BD"/>
<path d="M50.9208 22.676C50.7341 22.4147 50.6501 22.0787 50.6688 21.668C50.6874 21.2573 50.9301 20.9027 51.3968 20.604C51.6954 20.4173 52.0128 20.3427 52.3488 20.38C52.6848 20.3987 53.0114 20.5667 53.3288 20.884C53.8701 21.4253 54.4394 21.8453 55.0368 22.144C55.6341 22.4427 56.3808 22.592 57.2768 22.592C57.5568 22.5733 57.8648 22.536 58.2007 22.48C58.5368 22.4053 58.8261 22.256 59.0688 22.032C59.3301 21.7893 59.4608 21.4253 59.4608 20.94C59.4608 20.5293 59.3208 20.2027 59.0408 19.96C58.7608 19.7173 58.3874 19.512 57.9208 19.344C57.4728 19.176 56.9688 19.0173 56.4088 18.868C55.8301 18.7 55.2328 18.5133 54.6168 18.308C54.0194 18.1027 53.4688 17.8413 52.9648 17.524C52.4608 17.188 52.0501 16.7493 51.7328 16.208C51.4154 15.6667 51.2568 14.9853 51.2568 14.164C51.2568 13.2307 51.5181 12.4373 52.0408 11.784C52.5634 11.1307 53.2354 10.6267 54.0568 10.272C54.8968 9.91733 55.7741 9.74 56.6888 9.74C57.2674 9.74 57.8741 9.81467 58.5088 9.964C59.1434 10.0947 59.7501 10.3187 60.3288 10.636C60.9074 10.9347 61.3928 11.336 61.7848 11.84C61.9901 12.12 62.1114 12.456 62.1488 12.848C62.1861 13.24 62.0088 13.5947 61.6168 13.912C61.3368 14.136 61.0101 14.2387 60.6368 14.22C60.2634 14.1827 59.9554 14.052 59.7128 13.828C59.3954 13.4173 58.9661 13.0907 58.4248 12.848C57.9021 12.6053 57.2954 12.484 56.6048 12.484C56.3248 12.484 56.0168 12.5213 55.6808 12.596C55.3634 12.652 55.0834 12.792 54.8408 13.016C54.5981 13.2213 54.4768 13.5573 54.4768 14.024C54.4768 14.4533 54.6168 14.7987 54.8968 15.06C55.1768 15.3027 55.5501 15.508 56.0168 15.676C56.5021 15.8253 57.0154 15.9747 57.5568 16.124C58.1168 16.2733 58.6861 16.4507 59.2648 16.656C59.8434 16.8613 60.3754 17.132 60.8608 17.468C61.3461 17.804 61.7381 18.2427 62.0368 18.784C62.3354 19.3067 62.4848 19.9787 62.4848 20.8C62.4848 21.752 62.2048 22.564 61.6448 23.236C61.0848 23.908 60.3848 24.4213 59.5448 24.776C58.7048 25.112 57.8461 25.28 56.9688 25.28C55.8674 25.28 54.7661 25.0933 53.6647 24.72C52.5634 24.328 51.6488 23.6467 50.9208 22.676ZM67.2566 25C66.7712 25 66.3699 24.8413 66.0526 24.524C65.7352 24.188 65.5766 23.7773 65.5766 23.292V5.988C65.5766 5.50267 65.7352 5.10133 66.0526 4.784C66.3699 4.448 66.7712 4.28 67.2566 4.28C67.7419 4.28 68.1432 4.448 68.4606 4.784C68.7779 5.10133 68.9366 5.50267 68.9366 5.988V23.292C68.9366 23.7773 68.7779 24.188 68.4606 24.524C68.1432 24.8413 67.7419 25 67.2566 25ZM76.1606 10.02C76.5899 10.02 76.9632 10.1973 77.2806 10.552C77.5979 10.9067 77.7566 11.252 77.7566 11.588C77.7566 12.036 77.5326 12.456 77.0846 12.848L68.6566 20.604L68.5166 16.74L74.9286 10.552C75.2832 10.1973 75.6939 10.02 76.1606 10.02ZM76.5806 24.972C76.0952 24.972 75.6846 24.7853 75.3486 24.412L70.1686 18.924L72.7166 16.572L77.7566 22.06C78.1112 22.4333 78.2886 22.8533 78.2886 23.32C78.2886 23.8053 78.0926 24.2067 77.7006 24.524C77.3272 24.8227 76.9539 24.972 76.5806 24.972ZM84.402 23.292C84.402 23.7773 84.2433 24.188 83.926 24.524C83.6086 24.8413 83.2073 25 82.722 25C82.2366 25 81.8353 24.8413 81.518 24.524C81.2006 24.188 81.042 23.7773 81.042 23.292V11.728C81.042 11.2427 81.2006 10.8413 81.518 10.524C81.8353 10.188 82.2366 10.02 82.722 10.02C83.2073 10.02 83.6086 10.188 83.926 10.524C84.2433 10.8413 84.402 11.2427 84.402 11.728V23.292ZM82.694 8.2C82.0593 8.2 81.6113 8.09733 81.35 7.892C81.0886 7.68667 80.958 7.32267 80.958 6.8V6.268C80.958 5.72667 81.098 5.36267 81.378 5.176C81.6766 4.97067 82.1246 4.868 82.722 4.868C83.3753 4.868 83.8326 4.97067 84.094 5.176C84.3553 5.38133 84.486 5.74533 84.486 6.268V6.8C84.486 7.34133 84.346 7.71467 84.066 7.92C83.786 8.10667 83.3286 8.2 82.694 8.2ZM91.4952 23.292C91.4952 23.7773 91.3272 24.188 90.9912 24.524C90.6738 24.8413 90.2725 25 89.7872 25C89.3205 25 88.9285 24.8413 88.6112 24.524C88.2938 24.188 88.1352 23.7773 88.1352 23.292V5.988C88.1352 5.50267 88.2938 5.10133 88.6112 4.784C88.9472 4.448 89.3578 4.28 89.8432 4.28C90.3285 4.28 90.7205 4.448 91.0192 4.784C91.3365 5.10133 91.4952 5.50267 91.4952 5.988V23.292ZM99.042 23.292C99.042 23.7773 98.874 24.188 98.538 24.524C98.2207 24.8413 97.8194 25 97.334 25C96.8674 25 96.4754 24.8413 96.158 24.524C95.8407 24.188 95.682 23.7773 95.682 23.292V5.988C95.682 5.50267 95.8407 5.10133 96.158 4.784C96.494 4.448 96.9047 4.28 97.39 4.28C97.8754 4.28 98.2674 4.448 98.566 4.784C98.8834 5.10133 99.042 5.50267 99.042 5.988V23.292ZM102.081 22.676C101.894 22.4147 101.81 22.0787 101.829 21.668C101.848 21.2573 102.09 20.9027 102.557 20.604C102.856 20.4173 103.173 20.3427 103.509 20.38C103.845 20.3987 104.172 20.5667 104.489 20.884C105.03 21.4253 105.6 21.8453 106.197 22.144C106.794 22.4427 107.541 22.592 108.437 22.592C108.717 22.5733 109.025 22.536 109.361 22.48C109.697 22.4053 109.986 22.256 110.229 22.032C110.49 21.7893 110.621 21.4253 110.621 20.94C110.621 20.5293 110.481 20.2027 110.201 19.96C109.921 19.7173 109.548 19.512 109.081 19.344C108.633 19.176 108.129 19.0173 107.569 18.868C106.99 18.7 106.393 18.5133 105.777 18.308C105.18 18.1027 104.629 17.8413 104.125 17.524C103.621 17.188 103.21 16.7493 102.893 16.208C102.576 15.6667 102.417 14.9853 102.417 14.164C102.417 13.2307 102.678 12.4373 103.201 11.784C103.724 11.1307 104.396 10.6267 105.217 10.272C106.057 9.91733 106.934 9.74 107.849 9.74C108.428 9.74 109.034 9.81467 109.669 9.964C110.304 10.0947 110.91 10.3187 111.489 10.636C112.068 10.9347 112.553 11.336 112.945 11.84C113.15 12.12 113.272 12.456 113.309 12.848C113.346 13.24 113.169 13.5947 112.777 13.912C112.497 14.136 112.17 14.2387 111.797 14.22C111.424 14.1827 111.116 14.052 110.873 13.828C110.556 13.4173 110.126 13.0907 109.585 12.848C109.062 12.6053 108.456 12.484 107.765 12.484C107.485 12.484 107.177 12.5213 106.841 12.596C106.524 12.652 106.244 12.792 106.001 13.016C105.758 13.2213 105.637 13.5573 105.637 14.024C105.637 14.4533 105.777 14.7987 106.057 15.06C106.337 15.3027 106.71 15.508 107.177 15.676C107.662 15.8253 108.176 15.9747 108.717 16.124C109.277 16.2733 109.846 16.4507 110.425 16.656C111.004 16.8613 111.536 17.132 112.021 17.468C112.506 17.804 112.898 18.2427 113.197 18.784C113.496 19.3067 113.645 19.9787 113.645 20.8C113.645 21.752 113.365 22.564 112.805 23.236C112.245 23.908 111.545 24.4213 110.705 24.776C109.865 25.112 109.006 25.28 108.129 25.28C107.028 25.28 105.926 25.0933 104.825 24.72C103.724 24.328 102.809 23.6467 102.081 22.676Z" fill="black"/>
</svg>
