<svg width="64" height="64" viewBox="0 0 64 64" fill="none" xmlns="http://www.w3.org/2000/svg">
<rect width="64" height="64" rx="8" fill="#12B7BD"/>
<path d="M51.264 36.4C51.264 39.2 50.7973 41.8133 49.864 44.24C48.9307 46.6667 47.6053 48.8133 45.888 50.68C44.208 52.5093 42.192 53.9467 39.84 54.992C37.5253 56.0373 34.9867 56.56 32.224 56.56C29.4613 56.56 26.9227 56.0373 24.608 54.992C22.2933 53.9467 20.2773 52.5093 18.56 50.68C16.88 48.8133 15.5733 46.6667 14.64 44.24C13.7067 41.8133 13.24 39.2 13.24 36.4C13.24 33.6 13.7067 30.9867 14.64 28.56C15.5733 26.1333 16.88 24.0053 18.56 22.176C20.2773 20.3093 22.2933 18.8533 24.608 17.808C26.9227 16.7627 29.4613 16.24 32.224 16.24C34.9867 16.24 37.5253 16.7627 39.84 17.808C42.192 18.8533 44.208 20.3093 45.888 22.176C47.6053 24.0053 48.9307 26.1333 49.864 28.56C50.7973 30.9867 51.264 33.6 51.264 36.4ZM43.984 36.4C43.984 33.8987 43.48 31.64 42.472 29.624C41.464 27.5707 40.0827 25.9467 38.328 24.752C36.5733 23.5573 34.5387 22.96 32.224 22.96C29.9093 22.96 27.8747 23.5573 26.12 24.752C24.3653 25.9467 22.984 27.552 21.976 29.568C21.0053 31.584 20.52 33.8613 20.52 36.4C20.52 38.9013 21.0053 41.1787 21.976 43.232C22.984 45.248 24.3653 46.8533 26.12 48.048C27.8747 49.2427 29.9093 49.84 32.224 49.84C34.5387 49.84 36.5733 49.2427 38.328 48.048C40.0827 46.8533 41.464 45.248 42.472 43.232C43.48 41.1787 43.984 38.9013 43.984 36.4ZM37.768 13.44C36.6107 13.44 35.752 13.2347 35.192 12.824C34.6693 12.4133 34.408 11.6853 34.408 10.64V9.632C34.408 8.54933 34.688 7.82133 35.248 7.448C35.808 7.03733 36.648 6.832 37.768 6.832C39.0373 6.832 39.9333 7.03733 40.456 7.448C41.016 7.85866 41.296 8.58666 41.296 9.632V10.64C41.296 11.7227 41.016 12.4693 40.456 12.88C39.896 13.2533 39 13.44 37.768 13.44ZM26.624 13.44C25.4667 13.44 24.608 13.2347 24.048 12.824C23.5253 12.4133 23.264 11.6853 23.264 10.64V9.632C23.264 8.54933 23.544 7.82133 24.104 7.448C24.7013 7.03733 25.56 6.832 26.68 6.832C27.912 6.832 28.7893 7.03733 29.312 7.448C29.872 7.85866 30.152 8.58666 30.152 9.632V10.64C30.152 11.7227 29.872 12.4693 29.312 12.88C28.752 13.2533 27.856 13.44 26.624 13.44Z" fill="white"/>
</svg>
